<svg height="58" viewBox="0 0 60 58" width="60" xmlns="http://www.w3.org/2000/svg"><g fill="none" stroke="#f63" stroke-miterlimit="10" stroke-width="2"><path d="m54.87 55.6h-45.73a5.48 5.48 0 0 1 -5.48-5.48v-26.5a5.48 5.48 0 0 1 5.48-5.48h19.19a5.48 5.48 0 0 1 5.48 5.48v7.31h13.71v-19.19h-30.15l-13.37-3.99a.61.61 0 0 1 0-1.11l13.4-4h33.78a5.49 5.49 0 0 1 5.48 5.48v26.5a5.49 5.49 0 0 1 -5.48 5.49h-21a5.48 5.48 0 0 1 -5.48-5.49v-7.35h-11.9v19.19h42.07a1.79 1.79 0 0 1 1.79 1.79v5.56a1.79 1.79 0 0 1 -1.79 1.79z"/><path d="m17.37 2.6v9.14"/><path d="m10.05 4.43v5.48"/><path d="m48.43 47.38v8.22"/><path d="m43.87 47.38v8.22"/><path d="m17.37 7.17h32a2.73 2.73 0 0 1 2.72 2.73v22.87a2.73 2.73 0 0 1 -2.73 2.73h-17.36a2.73 2.73 0 0 1 -2.73-2.73v-7.34a2.72 2.72 0 0 0 -2.72-2.72h-15.55a2.72 2.72 0 0 0 -2.73 2.72v22.87a2.73 2.73 0 0 0 2.73 2.7h32.87"/></g></svg>