<svg height="58" viewBox="0 0 60 58" width="60" xmlns="http://www.w3.org/2000/svg"><g fill="none" stroke="#f63" stroke-miterlimit="10" stroke-width="2"><path d="m43.29 30a15 15 0 1 1 0-5.61"/><path d="m43.29 30a15 15 0 1 1 0-5.61"/><path d="m53 33.78a25.24 25.24 0 1 1 0-13.09"/><path d="m46.36 45.93 5.83 5.83-4.24 4.24-6.67-6.67"/><path d="m15.88 49.56-6.44 6.44-4.24-4.24 5.79-5.79"/><path d="m56.28 31.11h-7.88l-2.62-3.5 2.62-3.5h7.88l-2.63 3.5z"/><path d="m28.16 27.11h18"/><path d="m32.58 30.07a4.89 4.89 0 1 1 0-5.64"/></g></svg>