<svg height="44" viewBox="0 0 45.47 44" width="45.47" xmlns="http://www.w3.org/2000/svg"><path d="m35 43.33h-24.51a4.63 4.63 0 0 1 -4.2-6.59l11-23.62v-6.4a3.06 3.06 0 0 1 .68-6h9.53a3.06 3.06 0 0 1 .68 6.05v6.4l11 23.63a4.62 4.62 0 0 1 -4.18 6.53zm-17-40.66a1.07 1.07 0 1 0 0 2.13h1.32v8.76l-11.22 24.03a2.63 2.63 0 0 0 2.39 3.74h24.51a2.64 2.64 0 0 0 2.39-3.74l-11.19-24v-8.79h1.3a1.07 1.07 0 0 0 0-2.13z" fill="#4c5054"/><path d="m11.14 39.14a1.08 1.08 0 0 1 -1-1.53l10.41-22.32h4.55l10.38 22.32a1.05 1.05 0 0 1 -.06 1 1.08 1.08 0 0 1 -.92.5z" fill="#f63"/><path d="m20.75 35.3-4.95-4.8 1.39-1.44 3.55 3.44 6.64-6.58 1.41 1.42z" fill="#fff"/></svg>