<svg xmlns="http://www.w3.org/2000/svg" width="45.47" height="44" viewBox="0 0 45.47 44"><title>practice-hacking-icon</title><rect x="4.81" y="20.69" width="35.01" height="21.85" fill="#f63"/><path d="M40.82,43.54h-37V19.69h37Zm-35-2h33V21.69h-33Z" fill="#4c5054"/><path d="M11.62,20.6h-2V13.53a12.7,12.7,0,0,1,25.39,0v6.33H33V13.53a10.64,10.64,0,0,0-3.28-7.48,10.52,10.52,0,0,0-7.62-3A10.67,10.67,0,0,0,11.62,13.55Z" fill="#4c5054"/><path d="M19.34,35.94,11.5,32.52V30.63l7.84-3.39v2.22l-5.47,2.09,5.47,2.18Z" fill="#fff"/><path d="M20.07,37.43,22.91,25.6h1.64L21.69,37.43Z" fill="#fff"/><path d="M25.28,35.94V33.73l5.48-2.15-5.48-2.13v-2.2l7.85,3.4v1.87Z" fill="#fff"/></svg>