<svg xmlns="http://www.w3.org/2000/svg" width="45.47" height="44" viewBox="0 0 45.47 44"><title>icons</title><path d="M23.85,1.85V7.72A14.4,14.4,0,1,1,8.53,22.22h-6c.07,10.35,10,20.05,20.39,20.05S43,32.5,43,22.1C43,12,33.83,2.32,23.85,1.85Z" fill="#f63"/><path d="M22.73,43.27A21.25,21.25,0,1,1,44,22,21.27,21.27,0,0,1,22.73,43.27Zm0-40.49A19.25,19.25,0,1,0,42,22,19.26,19.26,0,0,0,22.73,2.78Zm0,34.23a15,15,0,1,1,15-15A15,15,0,0,1,22.73,37Zm0-28a13,13,0,1,0,13,13A13,13,0,0,0,22.73,9.05Z" fill="#4c5054"/><path d="M16.08,18.7a3.45,3.45,0,0,1,.7-2.38,2.48,2.48,0,0,1,1.91-.77,2.52,2.52,0,0,1,1.95.77,3.44,3.44,0,0,1,.71,2.38,3.45,3.45,0,0,1-.71,2.38,2.43,2.43,0,0,1-1.91.77,2.49,2.49,0,0,1-1.95-.77A3.42,3.42,0,0,1,16.08,18.7Zm1.78,0a3.08,3.08,0,0,0,.27,1.56.66.66,0,0,0,.56.29.65.65,0,0,0,.57-.29,3.11,3.11,0,0,0,.26-1.56,3.06,3.06,0,0,0-.26-1.56.64.64,0,0,0-.57-.3.66.66,0,0,0-.56.29A3.1,3.1,0,0,0,17.86,18.69Zm2.58,9.46h-1.7l6.36-12.6h1.65ZM24.13,25a3.41,3.41,0,0,1,.71-2.37,2.46,2.46,0,0,1,1.92-.78,2.49,2.49,0,0,1,1.94.78A3.41,3.41,0,0,1,29.4,25a3.46,3.46,0,0,1-.7,2.39,2.44,2.44,0,0,1-1.91.77,2.49,2.49,0,0,1-1.95-.77A3.46,3.46,0,0,1,24.13,25Zm1.79,0a3,3,0,0,0,.27,1.55.63.63,0,0,0,.56.3.65.65,0,0,0,.56-.29A3.08,3.08,0,0,0,27.58,25a3.25,3.25,0,0,0-.26-1.57.68.68,0,0,0-.57-.29.63.63,0,0,0-.56.29A3.1,3.1,0,0,0,25.92,25Z" fill="#4c5054"/></svg>