<svg height="44" viewBox="0 0 45.47 44" width="45.47" xmlns="http://www.w3.org/2000/svg"><path d="m22.73 41.94a11.08 11.08 0 0 1 -11.08-11.08v-8.12a5.92 5.92 0 0 1 5.91-5.91h10.34a5.91 5.91 0 0 1 5.91 5.91v8.12a11.08 11.08 0 0 1 -11.08 11.08z" fill="#f63"/><g fill="#4c5054"><path d="m22.73 42.94a12.09 12.09 0 0 1 -12.08-12.08v-8.12a6.92 6.92 0 0 1 6.91-6.91h10.34a6.92 6.92 0 0 1 6.91 6.91v8.12a12.08 12.08 0 0 1 -12.08 12.08zm-5.17-25.11a4.92 4.92 0 0 0 -4.91 4.91v8.12a10.08 10.08 0 0 0 20.16 0v-8.12a4.91 4.91 0 0 0 -4.91-4.91z"/><path d="m28.9 17.83h-12.34v-4a4 4 0 0 1 4-3.95h4.44a4 4 0 0 1 3.95 3.95zm-10.34-2h8.34v-2a2 2 0 0 0 -1.9-1.91h-4.48a2 2 0 0 0 -2 1.95z"/><path d="m24 10.92a10.51 10.51 0 0 1 5.84-9.45l.62-.31.85 1.84-.63.31a8.52 8.52 0 0 0 -4.68 7.61z"/><path d="m19.52 10.92a8.52 8.52 0 0 0 -4.73-7.66l-.63-.26.9-1.79.62.31a10.51 10.51 0 0 1 5.84 9.45z"/><path d="m36.51 25.62h2v7.53h-2z" transform="matrix(.19611729 -.98058044 .98058044 .19611729 1.34 60.4)"/><path d="m34.22 35.27h2v8.05h-2z" transform="matrix(.65855813 -.75252986 .75252986 .65855813 -17.54 39.92)"/><path d="m32.91 17.89h7.43v2h-7.43z" transform="matrix(.83205095 -.55469922 .55469922 .83205095 -4.33 23.49)"/><path d="m4.19 28.39h7.53v2h-7.53z" transform="matrix(.98 -.2 .2 .98 -5.61 2.13)"/><path d="m6.23 38.29h8.05v2h-8.05z" transform="matrix(.75241491 -.65868946 .65868946 .75241491 -23.34 16.48)"/><path d="m7.84 15.17h2v7.43h-2z" transform="matrix(.55469922 -.83205095 .83205095 .55469922 -11.78 15.76)"/></g></svg>